HIERARCHY
ROOT Hips
{
  OFFSET 34.8574 102.947 208.455
  CHANNELS 6 Xposition Yposition Zposition Zrotation Xrotation Yrotation
  JOINT RightUpLeg
  {
    OFFSET -8.9458 -8.66707 0.101652
    CHANNELS 3 Zrotation Xrotation Yrotation
    JOINT RightLeg
    {
      OFFSET 0 -44.4227 1.3727
      CHANNELS 3 Zrotation Xrotation Yrotation
      JOINT RightFoot
      {
        OFFSET 0.253549 -42.0924 -1.46059
        CHANNELS 3 Zrotation Xrotation Yrotation
        JOINT RightToes
        {
          OFFSET 0.04 -4.41509 8.4991
          CHANNELS 3 Zrotation Xrotation Yrotation
          End Site
          {
            OFFSET -0.08 -0.137448 9.77979
          }
        }
      }
    }
  }
  JOINT Spine
  {
    OFFSET 0 11.8905 0
    CHANNELS 3 Zrotation Xrotation Yrotation
    JOINT Spine1
    {
      OFFSET 0 25.6574 0.127663
      CHANNELS 3 Zrotation Xrotation Yrotation
      JOINT HEad
      {
        OFFSET 0 8.73416 0.011341
        CHANNELS 3 Zrotation Xrotation Yrotation
        End Site
        {
          OFFSET -0.29 12.7742 2.51395
        }
      }
      JOINT LeftShoulder1
      {
        OFFSET 8.99 -0.362252 -0.22
        CHANNELS 3 Zrotation Xrotation Yrotation
        JOINT LeftArm
        {
          OFFSET 10.2827 -0.00338 0.322123
          CHANNELS 3 Zrotation Xrotation Yrotation
          JOINT LeftForeArm
          {
            OFFSET 32.7669 0.099144 -1.42434
            CHANNELS 3 Zrotation Xrotation Yrotation
            JOINT LeftHand
            {
              OFFSET 27.5643 0.085362 1.02216
              CHANNELS 3 Zrotation Xrotation Yrotation
              End Site
              {
                OFFSET 16.7443 -0.6 1.50291
              }
            }
          }
        }
      }
      JOINT RightShoulder
      {
        OFFSET -8.99 -0.362252 -0.22
        CHANNELS 3 Zrotation Xrotation Yrotation
        JOINT RightArm
        {
          OFFSET -10.2827 -0.00338 0.322123
          CHANNELS 3 Zrotation Xrotation Yrotation
          JOINT RightForeArm
          {
            OFFSET -32.8971 0.099144 -1.42434
            CHANNELS 3 Zrotation Xrotation Yrotation
            JOINT RightHand
            {
              OFFSET -27.4921 0.085362 1.02216
              CHANNELS 3 Zrotation Xrotation Yrotation
              End Site
              {
                OFFSET -16.6312 -0.6 1.50291
              }
            }
          }
        }
      }
    }
  }
  JOINT LeftUpLeg
  {
    OFFSET 8.9458 -8.66707 0.101652
    CHANNELS 3 Zrotation Xrotation Yrotation
    JOINT LeftLeg
    {
      OFFSET 0 -44.4227 1.3727
      CHANNELS 3 Zrotation Xrotation Yrotation
      JOINT LeftFoot
      {
        OFFSET -0.253549 -42.0924 -1.46059
        CHANNELS 3 Zrotation Xrotation Yrotation
        JOINT LeftToes
        {
          OFFSET -0.04 -4.41509 8.4991
          CHANNELS 3 Zrotation Xrotation Yrotation
          End Site
          {
            OFFSET 0.08 -0.047448 9.77979
          }
        }
      }
    }
  }
}
MOTION
Frames:	21
Frame Time:	0.0166667
43.5824 101.511 20.6884 0.119328 1.83965 -178.704 3.5147 9.91165 -12.323 1.12065 33.7519 -15.3041 3.76274 -15.6703 0.152796 12.3788 10.906 22.6345 4.54428 4.6016 -0.834048 -1.77638 0.681847 -0.184178 2.01967 5.72858 8.23691 5.59082e-016 -7.95139e-016 -9.93923e-017 -75.2297 -39.4602 5.19763 -23.1881 13.5261 -11.0775 0.368473 9.90896 -0.00117926 -11.0116 -0.148464 9.01492 92.0044 -13.8138 18.1093 25.3451 14.0777 13.1926 -0.369625 9.91382 0.00119885 -2.84949 -21.8529 -1.666 -2.24933 16.7357 7.95596 -0.704807 11.1636 0.12655 -8.86079 2.76877 8.87135 
43.4266 101.6 18.527 -0.227497 2.3011 -178.333 2.23082 9.66312 -12.3343 1.6511 36.4531 -16.1919 4.54864 -12.1624 0.108832 13.5851 17.981 25.88 4.57223 4.48942 -1.09933 -2.54283 1.36892 -0.191422 2.3408 5.51959 8.19547 7.14382e-016 -7.95139e-016 -0 -75.748 -39.4147 3.93823 -22.9727 13.521 -10.9894 0.368473 9.90896 -0.00117926 -11.1687 -0.166296 9.07254 92.7591 -14.4401 17.7059 25.1345 13.6493 11.0828 -0.369625 9.91382 0.00119885 -3.35109 -21.1668 -1.40264 -2.31142 19.0285 7.12559 -0.478196 9.66104 0.0904505 -8.64024 3.28378 8.81294 
43.2378 101.685 16.4228 -0.584142 2.7642 -177.974 0.843476 8.91529 -12.4878 1.95694 39.588 -16.8274 5.38308 -7.82704 -0.0177001 13.8566 24.3186 28.3365 4.53779 4.36812 -1.31578 -3.18166 2.09005 -0.180221 2.53962 5.38535 8.09431 -1.11816e-016 0 -9.93923e-017 -76.5165 -39.2905 2.39941 -22.7075 13.4934 -10.7732 0.368473 9.90896 -0.00117926 -11.3913 -0.190791 9.0588 93.4851 -15.1227 17.242 24.8785 13.2482 9.09666 -0.369625 9.91382 0.00119885 -4.00245 -20.2439 -0.178444 -1.80021 20.906 5.23903 -0.147951 8.06285 0.0490042 -8.20775 3.56613 8.50245 
42.9716 101.777 14.4768 -1.08555 3.35416 -177.884 -0.748712 7.73741 -12.9716 1.12943 43.0685 -16.2906 6.35597 -2.16253 -0.297322 13.0321 29.694 28.5721 4.22308 4.229 -1.44639 -3.62738 3.25218 -0.132123 2.47218 5.23684 8.07598 2.11209e-016 0 -0 -77.6762 -39.1799 0.573649 -22.402 13.4811 -10.6025 0.368473 9.90896 -0.00117926 -11.8276 -0.24192 9.16741 94.1799 -15.7284 16.9119 24.5975 12.9238 7.42007 -0.369625 9.91382 0.00119885 -4.64828 -18.8639 1.36771 -1.36372 22.0951 3.34752 0.483496 6.55019 -0.00591914 -8.63905 3.63491 8.92554 
42.6981 101.9 12.6398 -1.59185 3.8896 -177.958 -2.29571 6.07137 -13.293 -0.162314 46.8085 -15.3335 7.1837 3.60112 -0.621481 12.0319 33.0523 26.6378 3.79049 4.11146 -1.51102 -3.92822 4.43009 -0.0731568 2.30132 5.01052 8.1506 4.96962e-017 -7.95139e-016 9.93923e-017 -79.0049 -38.9273 -1.3461 -22.1372 13.4938 -10.5728 0.368473 9.90896 -0.00117926 -12.3011 -0.291269 9.07198 94.819 -16.145 16.7042 24.3824 12.6302 5.87882 -0.369625 9.91382 0.00119885 -5.34672 -17.3007 2.52158 -1.02413 22.7016 2.03385 1.04011 5.21943 -0.0485166 -9.16016 3.44878 9.35559 
42.4747 102.082 10.9137 -2.04729 4.21534 -178.227 -3.48634 3.80023 -12.972 -1.34453 50.6926 -14.0755 7.54568 8.73851 -0.947207 10.6223 31.5697 21.7974 3.27371 4.06283 -1.50118 -4.10526 5.32719 -0.0220443 2.14489 4.55258 8.4358 1.92573e-016 0 -0 -80.3372 -38.3364 -3.11319 -22.0701 13.5781 -10.998 0.368473 9.90896 -0.00117926 -12.7642 -0.319275 8.33579 95.5131 -16.1235 16.7903 24.3196 12.3078 4.22299 -0.369625 9.91382 0.00119885 -6.01288 -15.7783 1.96557 -1.12835 22.7008 2.77056 1.08969 4.31162 -0.0449695 -9.26017 2.79325 9.25184 
42.2947 102.323 9.24552 -2.34247 4.37735 -178.537 -4.36407 1.11836 -12.2076 -2.34103 54.638 -13.8937 7.42079 12.2375 -1.15982 8.49896 28.3393 16.3435 2.84095 4.05055 -1.46496 -4.16409 5.96454 0.0174602 2.00441 4.04599 8.75206 3.16813e-016 -1.59028e-015 2.48481e-017 -81.5725 -37.6752 -4.85205 -21.979 13.6594 -11.3975 0.368473 9.90896 -0.00117926 -12.9799 -0.31957 7.48346 95.8597 -15.9396 16.8148 24.4076 12.0255 2.87424 -0.369625 9.91382 0.00119885 -6.40737 -14.2792 1.03028 -1.40156 22.2988 3.98392 1.00852 3.57385 -0.0282831 -9.23119 2.20775 9.04607 
42.1814 102.657 7.57317 -2.29127 4.32041 -178.738 -4.79526 -1.8957 -10.856 -1.72458 58.5643 -18.0052 6.58177 12.2886 -1.04791 6.56302 26.703 11.5406 2.75145 4.06194 -1.46259 -4.11197 6.16092 0.0288065 1.91229 3.62157 8.95143 -5.47434e-017 -1.59028e-015 -3.10601e-018 -82.5219 -37.3442 -6.62028 -21.5986 13.6512 -11.1882 0.368473 9.90896 -0.00117926 -12.5906 -0.270425 7.03974 95.3561 -15.8378 16.4114 24.7027 11.8467 2.22641 -0.369625 9.91382 0.00119885 -6.30453 -12.9016 0.72073 -1.67396 21.6867 4.40179 1.0621 2.78865 -0.0230073 -9.16334 2.39244 9.039 
42.1023 103.014 5.92537 -2.08361 4.19307 -178.855 -4.93069 -5.01779 -9.41502 0.636143 61.867 -23.9862 5.20929 10.5625 -0.800086 4.95208 25.2032 7.73257 2.76459 4.08466 -1.44905 -3.96352 6.22653 0.0313182 1.86686 3.27886 9.05658 -2.11209e-016 0 -2.48481e-017 -83.416 -36.7312 -8.45232 -21.2275 13.6433 -10.9883 0.368473 9.90896 -0.00117926 -11.905 -0.198015 6.56755 94.4144 -15.6593 15.787 25.1613 11.7527 2.10407 -0.369625 9.91382 0.00119885 -6.01188 -11.5418 0.568029 -1.91505 20.9161 4.57219 1.14294 2.09066 -0.0199496 -9.11236 2.65687 9.07204 
42.0311 103.334 4.30972 -1.82198 4.12909 -178.845 -5.05957 -7.95841 -8.33991 3.52376 64.3687 -28.6982 3.19947 8.02613 -0.52099 4.18152 23.2245 6.17397 2.73528 4.10184 -1.39431 -3.70833 6.42145 0.0397872 1.89934 3.08024 9.037 4.96962e-017 0 9.31803e-018 -84.3192 -35.1175 -10.3178 -21.1745 13.7272 -11.4322 0.368473 9.90896 -0.00117926 -11.1041 -0.118336 5.71462 93.2438 -15.2575 15.0043 25.7996 11.7395 2.5138 -0.369625 9.91382 0.00119885 -5.72109 -10.1228 0.573904 -1.97198 20.0998 4.47043 1.23988 1.58824 -0.0190037 -9.19446 2.37472 9.06239 
41.9721 103.622 2.72768 -1.57263 4.11775 -178.767 -5.13485 -10.737 -7.57211 6.28405 66.1276 -32.3 1.27793 4.98019 -0.278272 3.86926 21.7325 5.58714 2.63602 4.11437 -1.31369 -3.43165 6.71488 0.051542 1.94328 2.96776 8.90371 1.45982e-016 7.95139e-016 -7.45443e-017 -85.1892 -33.2441 -12.2802 -21.1407 13.8106 -11.8891 0.368473 9.90896 -0.00117926 -10.212 -0.0399767 4.75117 91.9678 -14.835 14.1358 26.4642 11.8049 3.31013 -0.369625 9.91382 0.00119885 -5.48618 -8.65504 0.350902 -2.05604 19.2318 4.5463 1.32966 1.14286 -0.0174872 -9.32273 2.05304 9.08407 
41.9168 103.863 1.18998 -1.4752 4.21797 -178.657 -5.24224 -13.2716 -7.36444 7.42227 67.1692 -33.2234 0.297161 2.08256 -0.196238 3.62595 21.8729 5.05115 2.35123 4.11345 -1.21037 -3.24374 7.21169 0.0717363 1.90809 2.91999 8.63159 2.48481e-017 1.59028e-015 9.93923e-017 -86.1571 -31.6884 -14.5211 -20.8697 13.8141 -11.7905 0.368473 9.90896 -0.00117926 -9.27632 0.0227925 3.82134 90.7519 -14.5939 13.2824 26.9764 11.9449 4.34427 -0.369625 9.91382 0.00119885 -5.42042 -7.07658 -0.764491 -2.37771 18.2921 5.51805 1.36661 0.643905 -0.0116321 -9.42107 2.10716 9.19293 
41.8767 104.055 -0.323601 -1.41487 4.3544 -178.541 -5.35287 -15.5825 -7.27564 7.84752 67.4795 -33.026 -0.357502 -0.769368 -0.186121 3.58246 22.149 4.90482 2.00023 4.11129 -1.09085 -3.05982 7.76501 0.0917717 1.90274 2.8903 8.29885 1.2424e-017 0 -1.98785e-016 -87.0753 -30.1737 -16.8076 -20.5563 13.8012 -11.5809 0.368473 9.90896 -0.00117926 -8.41459 0.070117 2.95109 89.6281 -14.4076 12.4052 27.4098 12.1547 5.6366 -0.369625 9.91382 0.00119885 -5.35221 -5.52029 -1.91581 -2.66371 17.4327 6.51418 1.40727 0.116039 -0.00461022 -9.57295 2.18586 9.35842 
41.862 104.189 -1.82268 -1.29496 4.47225 -178.45 -5.33476 -17.6787 -6.88268 8.69796 66.9272 -33.3645 -1.06976 -3.52438 -0.205076 3.80032 21.3288 5.5255 1.67714 4.12272 -0.955857 -2.7945 8.2684 0.103193 2.0314 2.79632 7.97351 1.2424e-017 1.59028e-015 -9.93923e-017 -87.8793 -28.5928 -19.0199 -20.3097 13.8045 -11.4978 0.368473 9.90896 -0.00117926 -7.81387 0.0926971 2.20871 88.7014 -14.1708 11.463 27.7949 12.4505 7.26678 -0.369625 9.91382 0.00119885 -5.23323 -4.1235 -2.40413 -2.75216 16.8419 6.78691 1.51357 -0.470199 0.00113252 -9.98122 2.03781 9.69283 
41.8688 104.271 -3.32835 -1.19814 4.56882 -178.397 -5.28532 -19.5424 -6.33077 9.53254 65.5342 -34.0354 -1.63992 -5.98664 -0.24701 3.94495 19.7354 5.94982 1.34166 4.13114 -0.825924 -2.55829 8.70543 0.110507 2.21551 2.72366 7.66127 -7.45443e-017 -1.59028e-015 -0 -88.4783 -27.0677 -21.0275 -20.1278 13.8368 -11.5946 0.368473 9.90896 -0.00117926 -7.31542 0.104648 1.61131 87.9342 -14.0191 10.5686 28.0737 12.7605 8.91039 -0.369625 9.91382 0.00119885 -5.13761 -2.82682 -2.46101 -2.72032 16.4129 6.74382 1.62347 -1.06309 0.00719339 -10.2039 1.77981 9.82363 
41.8969 104.303 -4.88064 -1.17945 4.61601 -178.452 -5.27577 -21.1621 -5.53564 10.2995 63.2292 -35.6395 -1.97155 -7.88794 -0.29421 3.42521 16.8183 5.05838 0.98362 4.12221 -0.723095 -2.44223 8.98641 0.114006 2.40013 2.76751 7.40061 -1.73937e-016 1.59028e-015 -1.98785e-016 -88.7331 -25.72 -22.5689 -20.0776 13.9278 -12.0558 0.368473 9.90896 -0.00117926 -6.80724 0.119089 1.25323 87.3058 -14.0967 9.80459 28.203 13.0356 10.2683 -0.369625 9.91382 0.00119885 -5.11586 -1.59682 -1.9842 -2.53769 16.06 6.58196 1.67564 -1.57133 0.0139937 -9.5947 1.38022 9.13533 
41.9454 104.28 -6.43243 -1.2245 4.63531 -178.482 -5.28483 -22.5197 -4.77101 10.4361 60.1613 -37.0255 -2.11691 -9.39426 -0.338208 2.64151 13.9408 3.86065 0.60715 4.10402 -0.64359 -2.4196 9.22474 0.117888 2.62444 2.81761 7.16088 1.49089e-016 -1.59028e-015 -0 -88.8463 -24.451 -23.9648 -20.054 14.0548 -12.7268 0.368473 9.90896 -0.00117926 -6.33315 0.129932 0.971019 86.8395 -14.2835 9.21258 28.2281 13.261 11.3321 -0.369625 9.91382 0.00119885 -5.16382 -0.485808 -1.26495 -2.30329 15.9019 6.16658 1.73002 -2.14309 0.0226173 -9.00411 1.02712 8.47046 
42.0206 104.195 -7.9282 -1.34164 4.62014 -178.33 -5.36117 -23.6268 -4.32962 9.76308 56.477 -37.6628 -2.12749 -10.5691 -0.366667 1.91152 12.3297 2.65095 0.209423 4.0848 -0.592941 -2.51166 9.51061 0.12745 2.92575 2.79212 6.91725 -9.93923e-017 1.59028e-015 1.98785e-016 -88.9419 -23.1564 -25.4951 -19.9453 14.2092 -13.5288 0.368473 9.90896 -0.00117926 -5.88369 0.134598 0.590782 86.58 -14.5243 8.88909 28.1721 13.3957 11.9346 -0.369625 9.91382 0.00119885 -5.25041 0.417143 -0.565823 -2.10599 16.0653 5.29215 1.82007 -2.93531 0.0338834 -9.31052 1.0164 8.75147 
42.1013 104.054 -9.4331 -1.51862 4.62662 -178.131 -5.48986 -24.3919 -4.12175 8.53008 52.2084 -37.7584 -1.90299 -11.4518 -0.372501 1.64335 11.9317 2.15416 -0.199133 4.04972 -0.565245 -2.66604 9.82397 0.139791 3.24826 2.70007 6.6911 7.45443e-017 0 -0 -88.9861 -21.9544 -26.9596 -19.8382 14.3777 -14.4185 0.368473 9.90896 -0.00117926 -5.50626 0.135675 0.238201 86.4722 -14.764 8.75909 28.0714 13.4756 12.2494 -0.369625 9.91382 0.00119885 -5.38976 1.24966 0.135543 -1.90927 16.4368 4.35832 1.96449 -3.83025 0.0490472 -9.70717 1.00708 9.11878 
42.1556 103.851 -11.0006 -1.75379 4.73178 -177.993 -5.67567 -24.7024 -4.10891 7.03024 47.3651 -37.5627 -1.23035 -12.2288 -0.333821 2.87434 14.1672 4.21215 -0.618821 3.97694 -0.553221 -2.82172 10.2102 0.1539 3.54971 2.47821 6.51061 7.45443e-016 0 -0 -89.016 -20.9352 -28.2468 -19.8016 14.5445 -15.3204 0.368473 9.90896 -0.00117926 -5.27833 0.134225 -0.00164392 86.4988 -14.9143 8.80162 27.9581 13.5247 12.4268 -0.369625 9.91382 0.00119885 -5.60454 2.11924 0.782523 -1.71309 17.0041 3.77284 2.22929 -4.78205 0.0709154 -9.54096 0.674118 8.86077 
42.2222 103.617 -12.6102 -2.02605 4.86652 -177.84 -5.86616 -24.6328 -4.41849 5.23779 42.0799 -36.6753 -0.500144 -12.5228 -0.282727 3.74242 15.8069 5.87694 -1.02031 3.89559 -0.566526 -3.02579 10.5632 0.169399 3.82653 2.26167 6.33068 -1.10348e-032 -1.59028e-015 -3.97569e-016 -89.0127 -20.0675 -29.3855 -19.7836 14.7142 -16.2502 0.368473 9.90896 -0.00117926 -5.10009 0.132269 -0.180841 86.5949 -15.0156 8.95097 27.8476 13.5234 12.3739 -0.369625 9.91382 0.00119885 -5.84157 3.02764 1.34831 -1.52883 17.6082 3.31556 2.50641 -5.73191 0.0957168 -9.24847 0.26256 8.45797 
